<svg version="1.0" xmlns="http://www.w3.org/2000/svg" width="1066.667" height="1066.667" viewBox="0 0 800 800"><path d="M369.5 2.4c-43.8 9-81.2 29.2-121.4 65.7C173.3 135.9 111.4 255.2 93.6 366l-.6 3.5 3.2-4c6-7.7 17.6-18.2 26.2-23.9 10.6-7.1 19.1-10.8 33.2-14.3 9.7-2.5 12.7-2.8 27.4-2.7 14.5 0 17.8.3 27.3 2.7 27 6.7 44.9 20.5 56.7 43.6 9.7 19.1 15.7 53.4 14.9 84.1-.4 13.6-1.3 16.3-6.6 19.7-2.5 1.7-7.7 1.8-70.4 2.1l-67.7.3 1.5 5.6c5.2 20 16.9 32.8 35.6 39 7.7 2.5 9.4 2.7 26.2 2.7 21.4.1 27.4-1 51.5-9.1 18.6-6.3 22-6.4 27.1-1.4 3.9 4 4.9 8.8 4.9 24.7 0 23.7-1.8 26.7-19.5 31.8-33.3 9.5-58.7 12.8-83.8 10.7-30.9-2.6-54.9-11.6-74.4-28l-7.2-6 1.5 5.2c13.5 46.7 37.3 91.3 67.4 126.2 10.7 12.4 35.4 36.4 48 46.6 48.2 39.3 99.6 63.9 152.3 73 16.4 2.8 59.6 2.8 75.3-.1 23.6-4.2 44.7-11.5 70.9-24.5 40.6-20.1 77.5-46.7 111.1-80 13.5-13.5 20.1-20.7 33.3-36.9 1.5-1.8 1.5-1.9-.4-1.2-1.1.4-7.2 2-13.5 3.4-10.4 2.4-13.5 2.6-32.5 2.6-18.6 0-22.7-.3-35.5-2.7-8-1.4-20.3-4.2-27.5-6.1-14.4-3.9-17.8-6.1-19.1-13.2-.7-3.9 3-35.8 4.7-40.3 1.6-4 4.9-7 9.1-8.1 3.2-.9 4.9-.7 11 1.6 29.3 10.5 41.2 12.9 61.1 12.2 10.8-.4 14.4-1 19.9-3 11.3-4.2 17.7-10.5 21.7-21.4 1.9-5 4.1-21.4 2.8-21.4-.3 0-2.9 1.6-5.9 3.5-7.9 5.3-14.6 8.2-25.5 11.2-13.5 3.7-32.3 3.9-45.8.4-37.3-9.6-60.2-38.7-69.1-87.6-2.7-15.1-2.5-45 .4-61.1 4.2-23 9.8-38.6 19.4-54.1 9.8-15.8 27.5-32.2 42-38.8 9.4-4.3 23.5-7.6 35.3-8.2 9.7-.5 12.3-.2 21.7 2 10.9 2.7 20.1 6.3 27.4 10.9l4 2.6 1.3-2.9c.7-1.6 2.7-3.9 4.4-5.1 3-2.1 4.4-2.3 20-2.6 13.2-.3 16.7-.6 16.7-1.7 0-2.9-15.1-46.9-22-64-8.1-20.2-27.1-59.8-37.5-78-35.2-62.1-76.4-111.3-120-143.6-26.8-19.9-58.7-34.5-87-39.8C431.1.3 425.9 0 405 .1c-21.3.1-25.9.4-35.5 2.3zM262.9 189.6c8.9 2 10.2 3 10.8 8.7l.6 4.7 3.9-4.5c10.5-12 31.6-14.1 46-4.5 5.3 3.5 11.3 11.7 13.3 18.1 1.3 4.3 1.4 4.2 1.4-7.2.1-15.2.3-15.4 11.6-15.4 7.4 0 8.9.3 10.1 1.9 1.1 1.6 1.4 7.8 1.4 32.8V255h15.8c8.6 0 16.7.3 18 .6l2.2.6v-32c0-28.5.2-32.1 1.7-33.3 2.1-1.9 22.8-2.4 33.6-1 17.4 2.4 28.1 11.1 32.1 26.3l1.4 5.3.3-14.7c.3-10.3.8-15.1 1.7-16 1-1 7.5-1.3 28.2-1.3 24.1 0 27.1.2 28.6 1.7 1.6 1.6 1.8 1.6 3 .1 1.4-2 12.5-3 16.5-1.5 2 .8 5.6 5.8 13.7 19.2l11.1 18.2.3-17.1c.4-20.6.3-20.6 10.8-20.6 11.3 0 10.5-3.1 10.5 43 0 45.9.8 42.7-10.3 43.3-6.1.4-7.1.1-9.5-1.9-1.4-1.3-7.4-10.3-13.2-19.9L548 236.6v17.5c0 21.5 0 21.4-9.7 21.3-3.7-.1-8.1-.1-9.8-.1-36.1.5-58.5.1-59.7-1.1-.9-.9-1.5-6-1.8-17-.4-12-.7-14.7-1.3-11.7-.5 2.2-2 6.4-3.5 9.3-8 16.4-22.1 22.2-50.5 20.8-6.2-.3-12.1-.4-13.2-.3-1.1.1-14.3.2-29.3.2-26 0-27.4-.1-28.8-1.9-1-1.4-1.4-5.2-1.5-13.5 0-11.4-.1-11.5-1.4-7.2-3.2 10.3-13.6 20.6-23.4 23.1-12.4 3.2-25.9.1-34.2-7.9l-4.9-4.7v2.8c0 4.6-3.6 7.3-12.3 9.2-22.8 5.1-41.6-.9-51.7-16.6-5.5-8.5-7.4-16.4-6.8-29.1.4-9 .9-11.3 3.6-17.1 5.8-12.3 12.9-18.8 25-22.7 7.2-2.3 20.9-2.5 30.1-.3zm142.6 135.9c11.3 2.3 20 5.5 27.8 9.9l7.4 4.2 1.2-2.8c.7-1.5 2.7-3.8 4.4-5 3.1-2.2 3.9-2.3 25.3-2.3 24.6 0 25.8.3 29.7 6.4l2.2 3.6.3 91.5c.4 112.3-.5 132.3-6.8 157-4.2 16.6-11.6 30.1-23.3 42.6-14.8 15.8-28 22.7-54.7 28.6-9.1 2-13.2 2.3-31 2.3-22.8-.1-36.7-2-62.4-8.9-20-5.3-21.2-7.5-18.2-31.2 2.6-19.8 3.5-23.6 6.4-26.7 4.4-4.6 9-5.2 17.4-2.1 29.4 10.6 41.2 12.9 61.1 12.1 9.9-.4 14.7-1 19.2-2.6 15.6-5.6 23.5-17 25.1-36.1l.7-8.2-4.9 3.5c-7.7 5.4-16.5 9.5-27.1 12.4-13.6 3.6-32.5 3.8-45.8.4-21.9-5.7-37-16.6-50.4-36.5-6.6-9.8-10.1-17.4-14.1-30.6-5-16.9-6.4-28.1-6.5-50 0-24.5 2.7-41.5 9.7-61.5 9.4-26.6 29.5-50.7 51.5-61.9 5.6-2.8 19.9-7.2 27.8-8.5 8-1.4 20.4-1.2 28 .4z"/><path d="M524 208.7c-1.7.9-7.6 1.3-18.2 1.3H490v11h14.4c17.1 0 17.6.3 17.6 10.2 0 9.3-1 9.8-18 9.8h-14v13.9l18.3.3c10 .2 18.3.3 18.5.2.1-.1.1-10.9 0-24l-.3-24-2.5 1.3zm-284.5.9c-6.4 3.3-9.9 8.7-11.6 17.7-2.7 14.7 6.1 28.2 19.1 29.5l5 .5v-4.7c0-4.6 0-4.6-3.4-4.6-6.2 0-9.5-1.8-10.2-5.7-.8-4.4 0-12.1 1.5-13.6.8-.8 6.1-1.3 14-1.5l12.8-.4.6-4.6c.4-2.6.9-5.6 1.2-6.7.5-1.8-.4-2.3-8.2-4.8-9.9-3.1-16.4-3.4-20.8-1.1zm58.7-.4c-7.9 3.9-10.7 28.6-4.6 41.4 3.8 8 14.7 8.6 19.3 1 7.2-11.8 4.4-38.4-4.4-42.4-3.2-1.5-7.2-1.4-10.3 0zM421 232.5V255h3.9c8.2 0 15-4.3 17.3-10.9.6-2 1.2-7.5 1.2-12.2-.1-15.1-5.4-21.9-17.1-21.9H421v22.5zm-37.5 151.4c-15.2 7.2-24 26.1-26.7 57.4-1.9 22.8.7 42.1 7.7 56.4 8.8 17.9 24.2 22.9 43 14 8.4-4 20.5-15.1 26.8-24.7l3.7-5.5v-78.2l-5.8-5.5c-16.4-15.7-34.3-20.8-48.7-13.9zm-218.1-.8c-10.1 3.8-19.1 14.5-23.5 27.7-1.2 3.7-2.4 7.3-2.7 7.9-.3 1 7.4 1.3 36.7 1.3H213v-3.8c0-4.9-2.5-14.5-5.3-20.1-2.9-5.8-9.4-11.4-15.8-13.4-7.2-2.4-19.9-2.2-26.5.4zm442 .8c-12.4 5.9-21.3 21.5-24.9 43.6-2 11.9-2 41.8-.1 51.8 3.2 16.7 11.2 29.7 21.1 34.3 9.2 4.4 22.4 2.4 33.9-5 5.9-3.8 16.6-14.8 21.4-22l3.2-4.9v-78.4l-5.7-5.5c-16.9-15.9-34.2-20.9-48.9-13.9z"/></svg>