<svg width="22" height="22" fill="none" xmlns="http://www.w3.org/2000/svg"><g filter="url(#filter0_d_18130_4)" fill="#E8C300"><path d="M17.103 2.667a.74.74 0 00-.166 0H5.59a.745.745 0 00-.215.035l5.856 6.396 5.873-6.431z"/><path d="M17.703 3.284L11.802 9.73a.776.776 0 01-.571.258.776.776 0 01-.572-.258L4.811 3.333a.97.97 0 00-.029.222v8.89c0 .235.086.461.238.628.152.166.358.26.573.26H16.94a.776.776 0 00.573-.26.934.934 0 00.238-.629V3.555a.964.964 0 00-.049-.27zm-11.555 9.16h-.563v-.635L8.53 8.604l.572.627-2.955 3.213zm10.785 0h-.567L13.41 9.231l.572-.627 2.946 3.205.004.635z"/></g><defs><filter id="filter0_d_18130_4" x="0" y="0" width="22.591" height="24" filterUnits="userSpaceOnUse" color-interpolation-filters="sRGB"><feFlood flood-opacity="0" result="BackgroundImageFix"/><feColorMatrix in="SourceAlpha" values="0 0 0 0 0 0 0 0 0 0 0 0 0 0 0 0 0 0 127 0" result="hardAlpha"/><feOffset dy="4"/><feGaussianBlur stdDeviation="2"/><feComposite in2="hardAlpha" operator="out"/><feColorMatrix values="0 0 0 0 0 0 0 0 0 0 0 0 0 0 0 0 0 0 0.25 0"/><feBlend in2="BackgroundImageFix" result="effect1_dropShadow_18130_4"/><feBlend in="SourceGraphic" in2="effect1_dropShadow_18130_4" result="shape"/></filter></defs></svg>