<svg width="10" height="11" fill="none" xmlns="http://www.w3.org/2000/svg"><g clip-path="url(#clip0_18130_2)"><path d="M8.992 9.147l-1.285 1.538A.848.848 0 017.02 11c-1.083-.04-2.107-.681-2.948-1.34C2.692 8.448 1.425 6.947.63 5.132.326 4.37-.032 3.4.002 2.55c.003-.32.075-.633.261-.839L1.55.161c.267-.274.525-.18.696.14L3.28 2.667a.79.79 0 01-.116.78l-.474.572a.319.319 0 00-.048.163c.182.848.732 1.63 1.218 2.168.486.538 1.009 1.267 1.687 1.44.084.027.187.037.247-.03l.55-.676c.19-.174.465-.259.668-.117h.01l1.865 1.33a.609.609 0 01.106.85z" fill="#E8C300"/></g><defs><clipPath id="clip0_18130_2"><path fill="#fff" d="M0 0h9.119v11H0z"/></clipPath></defs></svg>